<?xml version="1.0" standalone="no"?>
<!DOCTYPE svg PUBLIC "-//W3C//DTD SVG 20010904//EN"
 "http://www.w3.org/TR/2001/REC-SVG-20010904/DTD/svg10.dtd">
<svg version="1.0" xmlns="http://www.w3.org/2000/svg"
 width="559.000000pt" height="559.000000pt" viewBox="0 0 559.000000 559.000000"
 preserveAspectRatio="xMidYMid meet">
<metadata>
Created by potrace 1.11, written by Peter Selinger 2001-2013
</metadata>
<g transform="translate(0.000000,559.000000) scale(0.100000,-0.100000)"
fill="#000000" stroke="none">
<path d="M1210 4913 c0 -13 -8 -24 -20 -28 -11 -3 -26 -12 -32 -18 -7 -7 -47
-37 -88 -67 -41 -30 -82 -61 -90 -69 -21 -20 -77 -42 -93 -35 -17 6 -18 -35
-1 -53 16 -17 15 -3943 -1 -3943 -6 0 -11 -11 -11 -24 0 -20 5 -24 27 -24 16
1 27 6 26 12 -1 8 109 12 381 14 323 2 382 0 382 -12 0 -8 9 -13 24 -12 18 1
26 8 30 28 3 15 14 29 26 33 11 3 26 12 32 19 7 6 74 56 148 109 116 84 169
125 224 172 6 6 27 19 46 29 19 11 71 46 114 78 54 39 86 56 98 52 24 -7 34
21 18 50 -9 17 -12 108 -12 337 0 173 1 326 1 342 1 33 17 36 27 5 6 -21 139
-216 154 -228 6 -5 150 -211 195 -280 28 -42 238 -335 280 -390 19 -25 35 -49
35 -53 0 -8 78 -128 89 -137 4 -3 15 -18 25 -35 10 -16 28 -40 39 -52 11 -13
22 -35 23 -49 2 -14 5 -28 8 -31 8 -9 47 8 41 18 -4 5 140 9 366 9 334 0 373
-2 384 -17 14 -19 35 -9 35 17 0 12 13 26 33 36 30 16 116 72 127 84 3 3 30
23 60 45 30 21 60 44 65 50 18 21 178 136 216 155 20 11 46 17 58 15 16 -3 21
1 21 19 0 12 -5 27 -12 34 -17 17 -18 3763 -1 3769 7 3 12 16 11 29 -2 17 -8
24 -24 24 -12 0 -24 -6 -26 -12 -7 -19 -758 -19 -765 -1 -3 7 -16 13 -30 13
-18 0 -23 -5 -21 -17 3 -12 -7 -25 -26 -38 -17 -11 -111 -81 -209 -155 -98
-74 -200 -149 -225 -165 -26 -17 -81 -56 -123 -87 -42 -31 -90 -58 -105 -60
-21 -2 -29 -9 -29 -23 -1 -11 4 -23 9 -27 12 -8 15 -878 3 -878 -4 0 -15 16
-24 35 -9 19 -20 35 -25 35 -4 0 -8 6 -8 13 0 6 -10 22 -23 33 -12 12 -49 61
-82 110 -32 49 -62 91 -65 94 -4 3 -20 25 -37 50 -17 25 -39 54 -50 65 -10 11
-29 40 -42 65 -14 25 -59 91 -100 148 -138 187 -200 276 -232 331 -17 29 -41
65 -54 79 -13 14 -46 58 -72 96 -26 39 -50 73 -53 76 -4 3 -30 40 -59 83 -30
42 -57 77 -62 77 -5 0 -7 14 -5 30 3 26 0 30 -20 30 -15 0 -22 -5 -19 -13 4
-9 -82 -12 -417 -11 -481 2 -451 1 -443 14 4 6 -5 9 -19 8 -20 -2 -26 -8 -26
-25z m860 -94 c0 -5 8 -9 18 -9 12 0 29 -18 45 -47 15 -27 45 -73 67 -103 22
-30 43 -63 46 -72 4 -10 10 -18 14 -18 10 0 200 -266 200 -279 0 -5 12 -24 28
-42 22 -27 116 -156 265 -365 15 -22 61 -91 103 -154 42 -63 81 -119 88 -125
19 -16 175 -242 185 -267 5 -13 21 -36 35 -53 15 -16 72 -95 128 -175 57 -80
111 -154 121 -165 10 -11 27 -36 37 -55 10 -19 43 -70 74 -113 31 -42 56 -80
56 -82 0 -3 12 -19 28 -36 26 -30 149 -204 204 -291 15 -24 44 -64 64 -90 20
-27 36 -59 36 -76 1 -24 5 -29 27 -30 22 0 27 4 27 24 0 13 -6 24 -14 24 -9 0
-13 15 -13 52 1 29 1 62 1 73 -1 23 -1 252 -1 275 2 94 -1 205 -4 211 -3 4 -2
10 2 12 5 3 6 76 3 162 -3 86 -4 158 -2 160 4 3 5 214 1 230 -1 6 -1 15 1 20
2 12 1 198 -1 205 -1 3 -1 9 1 15 4 25 1 236 -5 245 -3 5 -3 10 2 10 8 0 8
183 0 197 -2 4 -2 16 2 25 3 9 4 87 1 173 -3 86 -4 158 -2 160 2 1 3 83 4 181
0 153 3 180 17 191 11 8 99 12 312 12 270 1 297 0 311 -16 14 -16 15 -217 15
-1818 0 -1681 -1 -1801 -17 -1816 -15 -15 -53 -17 -318 -17 -345 -1 -339 -2
-402 83 -22 30 -40 57 -40 60 0 3 -5 11 -11 18 -5 7 -51 71 -101 142 -50 72
-121 171 -159 222 -38 50 -69 94 -69 98 0 3 -4 11 -10 18 -5 7 -37 53 -71 102
-51 76 -99 143 -138 191 -5 6 -38 55 -75 110 -36 54 -74 110 -84 124 -120 171
-153 217 -159 225 -5 6 -19 26 -32 45 -13 19 -29 40 -35 45 -6 6 -29 37 -50
70 -82 126 -121 183 -186 270 -115 155 -171 237 -180 260 -5 13 -13 26 -18 29
-6 3 -59 77 -120 163 -60 87 -119 167 -131 177 -12 11 -21 25 -21 33 0 7 -4
13 -8 13 -5 0 -16 16 -26 36 -22 46 -134 206 -152 217 -8 4 -14 14 -14 22 0 7
-4 15 -8 17 -11 4 -143 196 -166 241 -11 20 -23 37 -27 37 -4 0 -20 20 -36 45
-15 25 -31 45 -35 45 -5 0 -8 4 -8 9 0 11 -95 148 -143 206 -18 22 -44 58 -56
80 -13 22 -45 72 -71 110 -78 117 -111 105 295 104 213 0 355 -4 355 -10z
m-735 -144 c43 -63 82 -115 85 -115 3 0 21 -26 40 -57 30 -52 82 -130 103
-158 10 -13 87 -118 150 -204 27 -36 66 -95 87 -131 21 -36 49 -76 62 -90 13
-14 39 -48 58 -75 19 -28 38 -51 42 -53 4 -2 8 -9 8 -16 0 -7 9 -24 21 -37 11
-13 28 -36 37 -51 9 -16 20 -28 24 -28 4 0 8 -6 8 -13 0 -8 9 -22 21 -33 12
-10 33 -39 47 -64 34 -58 158 -237 188 -270 29 -33 144 -199 152 -219 8 -21
40 -69 73 -106 24 -29 55 -71 164 -230 27 -38 55 -77 62 -85 8 -8 33 -45 56
-81 74 -118 135 -202 232 -320 7 -9 16 -26 20 -38 3 -12 10 -21 13 -21 4 0 16
-17 27 -37 18 -36 41 -68 142 -202 24 -31 46 -63 50 -71 4 -8 11 -19 15 -25
17 -21 125 -173 180 -255 68 -100 133 -192 205 -286 29 -38 62 -88 73 -110 12
-23 31 -53 43 -66 14 -15 21 -33 19 -51 -3 -23 0 -27 22 -27 13 0 26 5 28 11
3 8 89 10 283 10 338 -2 318 -1 304 -18 -6 -7 -17 -13 -24 -13 -8 0 -15 -4
-17 -9 -7 -18 -337 -251 -357 -251 -12 0 -21 -4 -21 -10 0 -6 -113 -10 -318
-10 -360 0 -363 0 -410 73 -15 23 -29 44 -32 47 -4 3 -26 34 -50 70 -25 36
-60 82 -78 104 -19 21 -39 50 -45 65 -12 26 -106 162 -238 341 -38 52 -80 115
-94 140 -13 25 -35 58 -49 73 -13 16 -42 54 -63 85 -21 31 -40 59 -43 62 -3 3
-32 43 -65 90 -32 47 -69 96 -82 110 -13 14 -23 30 -23 36 0 6 -13 29 -28 50
-16 21 -55 77 -87 124 -32 47 -62 87 -66 90 -12 8 -132 181 -163 235 -16 28
-46 70 -66 95 -20 25 -77 104 -128 176 -50 72 -98 136 -106 144 -9 7 -16 18
-16 24 0 7 -45 77 -101 156 -63 90 -99 150 -96 161 6 20 -27 33 -41 15 -13
-15 -11 -46 2 -46 8 0 11 -287 11 -993 0 -926 -1 -994 -18 -1029 -10 -20 -32
-47 -50 -59 -17 -12 -36 -27 -42 -33 -18 -20 -133 -104 -165 -121 -18 -9 -57
-37 -88 -61 -157 -123 -203 -156 -214 -151 -18 6 -17 3759 0 3765 7 2 12 12
12 22 0 10 25 36 58 61 31 23 62 48 67 54 26 28 70 55 89 55 16 0 42 -30 101
-115z m2508 -1040 c0 -619 -2 -1128 -5 -1130 -2 -3 -15 14 -29 36 -13 22 -37
58 -54 81 -29 39 -76 106 -179 253 -27 39 -54 75 -60 80 -10 9 -47 65 -71 107
-23 40 -140 204 -157 221 -11 11 -17 27 -14 42 3 13 -1 26 -7 28 -18 6 -18
967 -1 967 7 0 11 8 9 19 -2 13 18 34 75 75 43 32 95 72 116 91 20 18 49 39
63 46 31 16 252 177 266 195 10 12 37 24 44 18 2 -2 3 -510 4 -1129z m-2096
-702 c28 -38 58 -81 67 -98 30 -55 107 -166 139 -200 10 -11 28 -36 40 -55 11
-19 24 -37 28 -40 3 -3 34 -48 68 -100 33 -52 66 -101 71 -107 14 -17 72 -100
85 -122 6 -9 23 -33 38 -53 15 -20 31 -52 34 -72 3 -20 9 -33 14 -30 5 3 9
-167 9 -390 0 -267 -3 -395 -11 -398 -5 -2 -11 -11 -13 -21 -1 -9 -40 -45 -87
-79 -46 -34 -91 -69 -99 -78 -8 -9 -31 -25 -50 -36 -39 -21 -237 -166 -318
-231 -35 -28 -63 -43 -82 -43 -15 0 -30 -5 -32 -11 -4 -12 -523 -17 -535 -5
-4 3 0 12 8 19 25 20 334 251 359 267 12 8 51 36 86 62 76 56 92 65 120 63 16
-2 21 3 20 19 -1 12 -5 24 -11 28 -11 8 -16 1778 -5 1778 3 0 29 -30 57 -67z"/>
</g>
</svg>
